{
    "asset" : {
        "generator" : "Khronos glTF Blender I/O v1.6.16",
        "version" : "2.0"
    },
    "extensionsUsed" : [
        "KHR_texture_transform"
    ],
    "extensionsRequired" : [
        "KHR_texture_transform"
    ],
    "scene" : 0,
    "scenes" : [
        {
            "name" : "Scene",
            "nodes" : [
                0,
                1,
                2
            ]
        }
    ],
    "nodes" : [
        {
            "mesh" : 0,
            "name" : "AdventureNPC_Point",
            "translation" : [
                5.161870956420898,
                0.8708828091621399,
                -20.38442611694336
            ]
        },
        {
            "mesh" : 1,
            "name" : "static_house",
            "translation" : [
                0,
                0.00971515104174614,
                -15.124423027038574
            ]
        },
        {
            "mesh" : 2,
            "name" : "static_terrain"
        }
    ],
    "materials" : [
        {
            "doubleSided" : true,
            "name" : "Floor",
            "pbrMetallicRoughness" : {
                "baseColorTexture" : {
                    "index" : 0
                },
                "metallicFactor" : 0
            }
        },
        {
            "doubleSided" : true,
            "name" : "Ground",
            "pbrMetallicRoughness" : {
                "baseColorTexture" : {
                    "extensions" : {
                        "KHR_texture_transform" : {
                            "offset" : [
                                0,
                                -9
                            ],
                            "scale" : [
                                10,
                                10
                            ]
                        }
                    },
                    "index" : 1
                },
                "metallicFactor" : 0
            }
        }
    ],
    "meshes" : [
        {
            "name" : "Cube.001",
            "primitives" : [
                {
                    "attributes" : {
                        "POSITION" : 0,
                        "NORMAL" : 1,
                        "TANGENT" : 2,
                        "TEXCOORD_0" : 3
                    },
                    "indices" : 4
                }
            ]
        },
        {
            "name" : "Grid.002",
            "primitives" : [
                {
                    "attributes" : {
                        "POSITION" : 5,
                        "NORMAL" : 6,
                        "TANGENT" : 7,
                        "TEXCOORD_0" : 8
                    },
                    "indices" : 9,
                    "material" : 0
                }
            ]
        },
        {
            "name" : "Grid",
            "primitives" : [
                {
                    "attributes" : {
                        "POSITION" : 10,
                        "NORMAL" : 11,
                        "TANGENT" : 12,
                        "TEXCOORD_0" : 13
                    },
                    "indices" : 14,
                    "material" : 1
                }
            ]
        }
    ],
    "textures" : [
        {
            "sampler" : 0,
            "source" : 0
        },
        {
            "sampler" : 1,
            "source" : 1
        }
    ],
    "images" : [
        {
            "bufferView" : 10,
            "mimeType" : "image/png",
            "name" : "dc6pbds-a354d62b-93ba-41e0-9b4a-1dd35eb0323b"
        },
        {
            "bufferView" : 16,
            "mimeType" : "image/png",
            "name" : "Grass_01_512"
        }
    ],
    "accessors" : [
        {
            "bufferView" : 0,
            "componentType" : 5126,
            "count" : 24,
            "max" : [
                0.2549999952316284,
                0.2549999952316284,
                0.2549999952316284
            ],
            "min" : [
                -0.2549999952316284,
                -0.2549999952316284,
                -0.2549999952316284
            ],
            "type" : "VEC3"
        },
        {
            "bufferView" : 1,
            "componentType" : 5126,
            "count" : 24,
            "type" : "VEC3"
        },
        {
            "bufferView" : 2,
            "componentType" : 5126,
            "count" : 24,
            "type" : "VEC4"
        },
        {
            "bufferView" : 3,
            "componentType" : 5126,
            "count" : 24,
            "type" : "VEC2"
        },
        {
            "bufferView" : 4,
            "componentType" : 5123,
            "count" : 36,
            "type" : "SCALAR"
        },
        {
            "bufferView" : 5,
            "componentType" : 5126,
            "count" : 1361,
            "max" : [
                6.5,
                2.535658359527588,
                6.5
            ],
            "min" : [
                -6.5,
                0,
                -6.5
            ],
            "type" : "VEC3"
        },
        {
            "bufferView" : 6,
            "componentType" : 5126,
            "count" : 1361,
            "type" : "VEC3"
        },
        {
            "bufferView" : 7,
            "componentType" : 5126,
            "count" : 1361,
            "type" : "VEC4"
        },
        {
            "bufferView" : 8,
            "componentType" : 5126,
            "count" : 1361,
            "type" : "VEC2"
        },
        {
            "bufferView" : 9,
            "componentType" : 5123,
            "count" : 4224,
            "type" : "SCALAR"
        },
        {
            "bufferView" : 11,
            "componentType" : 5126,
            "count" : 14906,
            "max" : [
                75,
                0,
                75
            ],
            "min" : [
                -75,
                0,
                -75
            ],
            "type" : "VEC3"
        },
        {
            "bufferView" : 12,
            "componentType" : 5126,
            "count" : 14906,
            "type" : "VEC3"
        },
        {
            "bufferView" : 13,
            "componentType" : 5126,
            "count" : 14906,
            "type" : "VEC4"
        },
        {
            "bufferView" : 14,
            "componentType" : 5126,
            "count" : 14906,
            "type" : "VEC2"
        },
        {
            "bufferView" : 15,
            "componentType" : 5123,
            "count" : 60000,
            "type" : "SCALAR"
        }
    ],
    "bufferViews" : [
        {
            "buffer" : 0,
            "byteLength" : 288,
            "byteOffset" : 0
        },
        {
            "buffer" : 0,
            "byteLength" : 288,
            "byteOffset" : 288
        },
        {
            "buffer" : 0,
            "byteLength" : 384,
            "byteOffset" : 576
        },
        {
            "buffer" : 0,
            "byteLength" : 192,
            "byteOffset" : 960
        },
        {
            "buffer" : 0,
            "byteLength" : 72,
            "byteOffset" : 1152
        },
        {
            "buffer" : 0,
            "byteLength" : 16332,
            "byteOffset" : 1224
        },
        {
            "buffer" : 0,
            "byteLength" : 16332,
            "byteOffset" : 17556
        },
        {
            "buffer" : 0,
            "byteLength" : 21776,
            "byteOffset" : 33888
        },
        {
            "buffer" : 0,
            "byteLength" : 10888,
            "byteOffset" : 55664
        },
        {
            "buffer" : 0,
            "byteLength" : 8448,
            "byteOffset" : 66552
        },
        {
            "buffer" : 0,
            "byteLength" : 30730,
            "byteOffset" : 75000
        },
        {
            "buffer" : 0,
            "byteLength" : 178872,
            "byteOffset" : 105732
        },
        {
            "buffer" : 0,
            "byteLength" : 178872,
            "byteOffset" : 284604
        },
        {
            "buffer" : 0,
            "byteLength" : 238496,
            "byteOffset" : 463476
        },
        {
            "buffer" : 0,
            "byteLength" : 119248,
            "byteOffset" : 701972
        },
        {
            "buffer" : 0,
            "byteLength" : 120000,
            "byteOffset" : 821220
        },
        {
            "buffer" : 0,
            "byteLength" : 1630927,
            "byteOffset" : 941220
        }
    ],
    "samplers" : [
        {
            "magFilter" : 9728,
            "minFilter" : 9984,
            "wrapS" : 33071,
            "wrapT" : 33071
        },
        {
            "magFilter" : 9728,
            "minFilter" : 9984
        }
    ],
    "buffers" : [
        {
            "byteLength" : 2572148,
            "uri" : "data:application/octet-stream;base64,"
        }
    ]
}
